<svg id="b45c8d57-4369-490a-a9d9-774ff6392763" data-name="Layer 1" xmlns="http://www.w3.org/2000/svg" xmlns:xlink="http://www.w3.org/1999/xlink" viewBox="0 0 600 500"><defs><clipPath id="b1ce276e-7d4b-4c7e-9b13-749daa65e909"><path d="M33.32,419.48H560c16.07-36.64,22.46-77.47,17.22-117.14-2.7-20.44-8.76-41.37-22.91-56.37-9-9.51-20.68-16.07-32.88-20.77a141.66,141.66,0,0,0-94.31-2.36c-20,6.59-40.19,17.87-60.86,13.71-9-1.81-17.18-6.47-24.76-11.65-40.55-27.68-71.59-73-119.57-83.41-31-6.74-64.09,3.23-89.92,21.7s-45.15,44.73-60.69,72.42C40,291.52,24,356,33.32,419.48Z" style="fill:#f3f7fc"/></clipPath><clipPath id="b53f2d9d-3d76-40b1-8ec7-5dcf2388913c"><rect x="132.26" y="108.45" width="252.67" height="170.53" rx="23.92" style="fill:#cde4f7"/></clipPath><clipPath id="ad1cf0a6-3f5f-4908-81df-aa0eb8628fbd"><circle cx="230.1" cy="267.05" r="46.27" transform="translate(-108.49 365.12) rotate(-65.4)" style="fill:#cde4f7;opacity:0.61"/></clipPath></defs><path d="M361.86,136.42a58.05,58.05,0,0,0-.41,8.8c.37,11,5.44,24,15.73,29.36,12.82,6.63,28.93-.25,42.4,4.14,20.86,6.79,38.2,34.38,61.89,19.21,17.47-11.19,23.81-38,20.11-57.27-6.51-33.88-37.2-59.61-71.54-60.88C408,79,386.31,87,373.62,105.36A71.27,71.27,0,0,0,361.86,136.42Z" style="fill:#f3f7fc"/><path d="M33.32,419.48H560c16.07-36.64,22.46-77.47,17.22-117.14-2.7-20.44-8.76-41.37-22.91-56.37-9-9.51-20.68-16.07-32.88-20.77a141.66,141.66,0,0,0-94.31-2.36c-20,6.59-40.19,17.87-60.86,13.71-9-1.81-17.18-6.47-24.76-11.65-40.55-27.68-71.59-73-119.57-83.41-31-6.74-64.09,3.23-89.92,21.7s-45.15,44.73-60.69,72.42C40,291.52,24,356,33.32,419.48Z" style="fill:#f3f7fc"/><g style="clip-path:url(#b1ce276e-7d4b-4c7e-9b13-749daa65e909)"><path d="M476.1,272.38c-26.58,16.44-48.5,39.27-70.56,61.41-13.62,13.67-28,27.57-46.2,34-13.5,4.79-28.15,5.13-42.45,4.37a294.4,294.4,0,0,1-73-13.25c-28.86-9.11-56.23-22.65-85.4-30.72a240,240,0,0,0-132.1,1.39c-1.33,33.6-2.85,67.28-4.18,100.88,37.41,2.88,75-1.06,112.4-3.31,133.18-8,266.47,5.3,399.7.68,17.37-.6,35.17-.71,52.43-2.86.62-2.88.32-6.23.4-9.18q.14-5,.2-10,.13-10,0-20-.31-20-1.77-39.93-2.43-33.09-8-65.86a94.64,94.64,0,0,0-4.31-17.66c-1.37-3.63-3.12-8.44-7.19-9.75-3.62-1.17-8.23-.81-12-1.18a100,100,0,0,0-17.56-.13C515,253,494.31,261.11,476.1,272.38Z" style="fill:#578dca;opacity:0.1"/></g><rect x="132.26" y="108.45" width="252.67" height="170.53" rx="23.92" style="fill:#cde4f7"/><g style="clip-path:url(#b53f2d9d-3d76-40b1-8ec7-5dcf2388913c)"><rect x="119.82" y="98.75" width="276.55" height="28.31" style="fill:#172b54"/></g><circle cx="145.63" cy="118.54" r="3.46" style="fill:#578dca"/><circle cx="158.18" cy="118.54" r="3.46" style="fill:#fff"/><circle cx="170.74" cy="118.54" r="3.46" style="fill:#fff"/><path d="M376.88,277.35H136.26a6.33,6.33,0,0,1-6.32-6.32V112.54a6.32,6.32,0,0,1,6.32-6.32H376.88a6.33,6.33,0,0,1,6.33,6.32V271A6.34,6.34,0,0,1,376.88,277.35ZM136.26,106.82a5.72,5.72,0,0,0-5.72,5.72V271a5.73,5.73,0,0,0,5.72,5.72H376.88a5.73,5.73,0,0,0,5.73-5.72V112.54a5.73,5.73,0,0,0-5.73-5.72Z" style="fill:#172b54"/><rect x="143.49" y="142.32" width="68.03" height="120.15" rx="12.32" style="fill:#f3f7fc"/><rect x="147.6" y="147.85" width="26.45" height="33.73" rx="5.66" style="fill:#cde4f7"/><circle cx="180.8" cy="149.97" r="2.11" style="fill:#cde4f7"/><path d="M207.45,149.21H187.18a.45.45,0,0,1-.45-.45h0a.45.45,0,0,1,.45-.45h20.27a.45.45,0,0,1,.45.45h0A.45.45,0,0,1,207.45,149.21Z" style="fill:#cde4f7"/><path d="M207.45,151.63H187.18a.45.45,0,0,1-.45-.45h0a.46.46,0,0,1,.45-.46h20.27a.46.46,0,0,1,.45.46h0A.45.45,0,0,1,207.45,151.63Z" style="fill:#cde4f7"/><path d="M207.45,154.05H187.18a.45.45,0,0,1-.45-.45h0a.46.46,0,0,1,.45-.46h20.27a.46.46,0,0,1,.45.46h0A.45.45,0,0,1,207.45,154.05Z" style="fill:#cde4f7"/><circle cx="180.8" cy="158.75" r="2.11" transform="translate(-8.75 306.95) rotate(-79.3)" style="fill:#cde4f7"/><path d="M207.45,158H187.18a.46.46,0,0,1-.45-.46h0a.45.45,0,0,1,.45-.45h20.27a.45.45,0,0,1,.45.45h0A.46.46,0,0,1,207.45,158Z" style="fill:#cde4f7"/><path d="M207.45,160.41H187.18a.45.45,0,0,1-.45-.45h0a.45.45,0,0,1,.45-.45h20.27a.45.45,0,0,1,.45.45h0A.45.45,0,0,1,207.45,160.41Z" style="fill:#cde4f7"/><path d="M207.45,162.83H187.18a.45.45,0,0,1-.45-.45h0a.45.45,0,0,1,.45-.45h20.27a.45.45,0,0,1,.45.45h0A.45.45,0,0,1,207.45,162.83Z" style="fill:#cde4f7"/><circle cx="180.8" cy="167.54" r="2.11" transform="translate(-17.38 314.11) rotate(-79.3)" style="fill:#cde4f7"/><path d="M207.45,166.78H187.18a.45.45,0,0,1-.45-.45h0a.45.45,0,0,1,.45-.45h20.27a.45.45,0,0,1,.45.45h0A.45.45,0,0,1,207.45,166.78Z" style="fill:#cde4f7"/><path d="M207.45,169.2H187.18a.45.45,0,0,1-.45-.45h0a.45.45,0,0,1,.45-.45h20.27a.45.45,0,0,1,.45.45h0A.45.45,0,0,1,207.45,169.2Z" style="fill:#cde4f7"/><path d="M207.45,171.62H187.18a.45.45,0,0,1-.45-.45h0a.45.45,0,0,1,.45-.45h20.27a.45.45,0,0,1,.45.45h0A.45.45,0,0,1,207.45,171.62Z" style="fill:#cde4f7"/><circle cx="180.8" cy="176.33" r="2.11" style="fill:#cde4f7"/><path d="M207.45,175.57H187.18a.45.45,0,0,1-.45-.45h0a.45.45,0,0,1,.45-.45h20.27a.45.45,0,0,1,.45.45h0A.45.45,0,0,1,207.45,175.57Z" style="fill:#cde4f7"/><path d="M207.45,178H187.18a.45.45,0,0,1-.45-.45h0a.45.45,0,0,1,.45-.45h20.27a.45.45,0,0,1,.45.45h0A.45.45,0,0,1,207.45,178Z" style="fill:#cde4f7"/><path d="M207.45,180.41H187.18a.45.45,0,0,1-.45-.45h0a.45.45,0,0,1,.45-.45h20.27a.45.45,0,0,1,.45.45h0A.45.45,0,0,1,207.45,180.41Z" style="fill:#cde4f7"/><rect x="147.34" y="185.13" width="26.45" height="33.73" rx="5.66" style="fill:#cde4f7"/><circle cx="180.55" cy="187.24" r="2.11" style="fill:#cde4f7"/><path d="M207.2,186.48H186.93a.46.46,0,0,1-.46-.45h0a.46.46,0,0,1,.46-.45H207.2a.45.45,0,0,1,.45.45h0A.45.45,0,0,1,207.2,186.48Z" style="fill:#cde4f7"/><path d="M207.2,188.9H186.93a.46.46,0,0,1-.46-.45h0a.46.46,0,0,1,.46-.45H207.2a.45.45,0,0,1,.45.45h0A.45.45,0,0,1,207.2,188.9Z" style="fill:#cde4f7"/><path d="M207.2,191.32H186.93a.46.46,0,0,1-.46-.45h0a.46.46,0,0,1,.46-.45H207.2a.45.45,0,0,1,.45.45h0A.45.45,0,0,1,207.2,191.32Z" style="fill:#cde4f7"/><circle cx="180.55" cy="196.03" r="2.11" transform="translate(-51.58 326.96) rotate(-76.78)" style="fill:#cde4f7"/><path d="M207.2,195.27H186.93a.46.46,0,0,1-.46-.45h0a.46.46,0,0,1,.46-.45H207.2a.45.45,0,0,1,.45.45h0A.45.45,0,0,1,207.2,195.27Z" style="fill:#cde4f7"/><path d="M207.2,197.69H186.93a.46.46,0,0,1-.46-.45h0a.47.47,0,0,1,.46-.46H207.2a.46.46,0,0,1,.45.46h0A.45.45,0,0,1,207.2,197.69Z" style="fill:#cde4f7"/><rect x="186.47" y="199.2" width="21.18" height="0.9" rx="0.34" style="fill:#cde4f7"/><circle cx="180.55" cy="204.81" r="2.11" transform="translate(-60.13 333.73) rotate(-76.78)" style="fill:#cde4f7"/><path d="M207.2,204.06H186.93a.47.47,0,0,1-.46-.46h0a.46.46,0,0,1,.46-.45H207.2a.45.45,0,0,1,.45.45h0A.46.46,0,0,1,207.2,204.06Z" style="fill:#cde4f7"/><path d="M207.2,206.47H186.93a.46.46,0,0,1-.46-.45h0a.46.46,0,0,1,.46-.45H207.2a.45.45,0,0,1,.45.45h0A.45.45,0,0,1,207.2,206.47Z" style="fill:#cde4f7"/><path d="M207.2,208.89H186.93a.46.46,0,0,1-.46-.45h0a.46.46,0,0,1,.46-.45H207.2a.45.45,0,0,1,.45.45h0A.45.45,0,0,1,207.2,208.89Z" style="fill:#cde4f7"/><circle cx="180.55" cy="213.6" r="2.11" style="fill:#cde4f7"/><path d="M207.2,212.84H186.93a.46.46,0,0,1-.46-.45h0a.46.46,0,0,1,.46-.45H207.2a.45.45,0,0,1,.45.45h0A.45.45,0,0,1,207.2,212.84Z" style="fill:#cde4f7"/><path d="M207.2,215.26H186.93a.46.46,0,0,1-.46-.45h0a.46.46,0,0,1,.46-.45H207.2a.45.45,0,0,1,.45.45h0A.45.45,0,0,1,207.2,215.26Z" style="fill:#cde4f7"/><path d="M207.2,217.68H186.93a.46.46,0,0,1-.46-.45h0a.46.46,0,0,1,.46-.45H207.2a.45.45,0,0,1,.45.45h0A.45.45,0,0,1,207.2,217.68Z" style="fill:#cde4f7"/><rect x="147.09" y="222.4" width="26.45" height="33.73" rx="5.66" style="fill:#cde4f7"/><circle cx="180.3" cy="224.51" r="2.11" style="fill:#cde4f7"/><path d="M207,223.75H186.67a.45.45,0,0,1-.45-.45h0a.45.45,0,0,1,.45-.45H207a.45.45,0,0,1,.45.45h0A.45.45,0,0,1,207,223.75Z" style="fill:#cde4f7"/><path d="M207,226.17H186.67a.45.45,0,0,1-.45-.45h0a.45.45,0,0,1,.45-.45H207a.45.45,0,0,1,.45.45h0A.45.45,0,0,1,207,226.17Z" style="fill:#cde4f7"/><path d="M207,228.59H186.67a.45.45,0,0,1-.45-.45h0a.45.45,0,0,1,.45-.45H207a.45.45,0,0,1,.45.45h0A.45.45,0,0,1,207,228.59Z" style="fill:#cde4f7"/><circle cx="180.3" cy="233.3" r="2.11" transform="translate(-88.05 355.46) rotate(-76.78)" style="fill:#cde4f7"/><rect x="186.22" y="231.64" width="21.18" height="0.9" rx="0.34" style="fill:#cde4f7"/><path d="M207,235H186.67a.45.45,0,0,1-.45-.45h0a.45.45,0,0,1,.45-.45H207a.45.45,0,0,1,.45.45h0A.45.45,0,0,1,207,235Z" style="fill:#cde4f7"/><path d="M207,237.38H186.67a.45.45,0,0,1-.45-.45h0a.45.45,0,0,1,.45-.45H207a.45.45,0,0,1,.45.45h0A.45.45,0,0,1,207,237.38Z" style="fill:#cde4f7"/><circle cx="180.3" cy="242.09" r="2.11" transform="translate(-96.61 362.24) rotate(-76.78)" style="fill:#cde4f7"/><path d="M207,241.33H186.67a.45.45,0,0,1-.45-.45h0a.45.45,0,0,1,.45-.45H207a.45.45,0,0,1,.45.45h0A.45.45,0,0,1,207,241.33Z" style="fill:#cde4f7"/><path d="M207,243.75H186.67a.45.45,0,0,1-.45-.45h0a.45.45,0,0,1,.45-.45H207a.45.45,0,0,1,.45.45h0A.45.45,0,0,1,207,243.75Z" style="fill:#cde4f7"/><path d="M207,246.17H186.67a.45.45,0,0,1-.45-.45h0a.46.46,0,0,1,.45-.46H207a.46.46,0,0,1,.45.46h0A.45.45,0,0,1,207,246.17Z" style="fill:#cde4f7"/><circle cx="180.3" cy="250.87" r="2.11" style="fill:#cde4f7"/><path d="M207,250.12H186.67a.46.46,0,0,1-.45-.46h0a.45.45,0,0,1,.45-.45H207a.45.45,0,0,1,.45.45h0A.46.46,0,0,1,207,250.12Z" style="fill:#cde4f7"/><path d="M207,252.53H186.67a.45.45,0,0,1-.45-.45h0a.45.45,0,0,1,.45-.45H207a.45.45,0,0,1,.45.45h0A.45.45,0,0,1,207,252.53Z" style="fill:#cde4f7"/><path d="M207,255H186.67a.45.45,0,0,1-.45-.45h0a.45.45,0,0,1,.45-.45H207a.45.45,0,0,1,.45.45h0A.45.45,0,0,1,207,255Z" style="fill:#cde4f7"/><rect x="151.5" y="150.64" width="18.24" height="14.7" rx="4.72" style="fill:#f3f7fc"/><rect x="151.5" y="167.54" width="18.24" height="1.21" rx="0.46" style="fill:#f3f7fc"/><rect x="151.5" y="170.11" width="18.24" height="1.21" rx="0.46" style="fill:#f3f7fc"/><rect x="151.5" y="172.69" width="18.24" height="1.21" rx="0.46" style="fill:#f3f7fc"/><rect x="151.5" y="175.26" width="18.24" height="1.21" rx="0.46" style="fill:#f3f7fc"/><rect x="151.5" y="177.83" width="18.24" height="1.21" rx="0.46" style="fill:#f3f7fc"/><rect x="151.5" y="187.79" width="18.24" height="14.7" rx="4.72" style="fill:#f3f7fc"/><rect x="151.5" y="204.69" width="18.24" height="1.21" rx="0.46" style="fill:#f3f7fc"/><rect x="151.5" y="207.26" width="18.24" height="1.21" rx="0.46" style="fill:#f3f7fc"/><rect x="151.5" y="209.84" width="18.24" height="1.21" rx="0.46" style="fill:#f3f7fc"/><rect x="151.5" y="212.41" width="18.24" height="1.21" rx="0.46" style="fill:#f3f7fc"/><rect x="151.5" y="214.98" width="18.24" height="1.21" rx="0.46" style="fill:#f3f7fc"/><rect x="151.5" y="224.94" width="18.24" height="14.7" rx="4.72" style="fill:#f3f7fc"/><rect x="151.5" y="241.84" width="18.24" height="1.21" rx="0.46" style="fill:#f3f7fc"/><rect x="151.5" y="244.41" width="18.24" height="1.21" rx="0.46" style="fill:#f3f7fc"/><rect x="151.5" y="246.99" width="18.24" height="1.21" rx="0.46" style="fill:#f3f7fc"/><rect x="151.5" y="249.56" width="18.24" height="1.21" rx="0.46" style="fill:#f3f7fc"/><rect x="151.5" y="252.13" width="18.24" height="1.21" rx="0.46" style="fill:#f3f7fc"/><rect x="301.63" y="142.32" width="68.03" height="120.15" rx="12.32" style="fill:#f3f7fc"/><path d="M363.65,147.86H343.9a.65.65,0,0,1-.65-.65h0a.66.66,0,0,1,.65-.66h19.75a.66.66,0,0,1,.65.66h0A.65.65,0,0,1,363.65,147.86Z" style="fill:#cde4f7"/><path d="M363.65,150.84H343.9a.65.65,0,0,1-.65-.65h0a.65.65,0,0,1,.65-.65h19.75a.65.65,0,0,1,.65.65h0A.65.65,0,0,1,363.65,150.84Z" style="fill:#cde4f7"/><path d="M363.65,153.83H343.9a.66.66,0,0,1-.65-.66h0a.65.65,0,0,1,.65-.65h19.75a.65.65,0,0,1,.65.65h0A.66.66,0,0,1,363.65,153.83Z" style="fill:#cde4f7"/><path d="M363.65,156.81H343.9a.65.65,0,0,1-.65-.65h0a.66.66,0,0,1,.65-.66h19.75a.66.66,0,0,1,.65.66h0A.65.65,0,0,1,363.65,156.81Z" style="fill:#cde4f7"/><path d="M363.65,159.79H343.9a.65.65,0,0,1-.65-.65h0a.65.65,0,0,1,.65-.65h19.75a.65.65,0,0,1,.65.65h0A.65.65,0,0,1,363.65,159.79Z" style="fill:#cde4f7"/><path d="M363.65,162.78H343.9a.66.66,0,0,1-.65-.66h0a.65.65,0,0,1,.65-.65h19.75a.65.65,0,0,1,.65.65h0A.66.66,0,0,1,363.65,162.78Z" style="fill:#cde4f7"/><path d="M363.65,165.76H343.9a.65.65,0,0,1-.65-.65h0a.65.65,0,0,1,.65-.65h19.75a.65.65,0,0,1,.65.65h0A.65.65,0,0,1,363.65,165.76Z" style="fill:#cde4f7"/><path d="M363.65,222.49H343.9a.65.65,0,0,1-.65-.65h0a.65.65,0,0,1,.65-.65h19.75a.65.65,0,0,1,.65.65h0A.65.65,0,0,1,363.65,222.49Z" style="fill:#cde4f7"/><path d="M363.65,225.47H343.9a.65.65,0,0,1-.65-.65h0a.65.65,0,0,1,.65-.65h19.75a.65.65,0,0,1,.65.65h0A.65.65,0,0,1,363.65,225.47Z" style="fill:#cde4f7"/><path d="M363.65,228.46H343.9a.65.65,0,0,1-.65-.65h0a.66.66,0,0,1,.65-.66h19.75a.66.66,0,0,1,.65.66h0A.65.65,0,0,1,363.65,228.46Z" style="fill:#cde4f7"/><path d="M363.65,231.44H343.9a.65.65,0,0,1-.65-.65h0a.65.65,0,0,1,.65-.65h19.75a.65.65,0,0,1,.65.65h0A.65.65,0,0,1,363.65,231.44Z" style="fill:#cde4f7"/><path d="M363.65,234.43H343.9a.66.66,0,0,1-.65-.66h0a.65.65,0,0,1,.65-.65h19.75a.65.65,0,0,1,.65.65h0A.66.66,0,0,1,363.65,234.43Z" style="fill:#cde4f7"/><path d="M363.65,237.41H343.9a.65.65,0,0,1-.65-.65h0a.66.66,0,0,1,.65-.66h19.75a.66.66,0,0,1,.65.66h0A.65.65,0,0,1,363.65,237.41Z" style="fill:#cde4f7"/><path d="M363.65,240.39H343.9a.65.65,0,0,1-.65-.65h0a.65.65,0,0,1,.65-.65h19.75a.65.65,0,0,1,.65.65h0A.65.65,0,0,1,363.65,240.39Z" style="fill:#cde4f7"/><path d="M363.65,243.74H343.9a.65.65,0,0,1-.65-.65h0a.65.65,0,0,1,.65-.65h19.75a.65.65,0,0,1,.65.65h0A.65.65,0,0,1,363.65,243.74Z" style="fill:#cde4f7"/><path d="M363.65,246.73H343.9a.66.66,0,0,1-.65-.66h0a.65.65,0,0,1,.65-.65h19.75a.65.65,0,0,1,.65.65h0A.66.66,0,0,1,363.65,246.73Z" style="fill:#cde4f7"/><path d="M363.65,249.71H343.9a.65.65,0,0,1-.65-.65h0a.65.65,0,0,1,.65-.65h19.75a.65.65,0,0,1,.65.65h0A.65.65,0,0,1,363.65,249.71Z" style="fill:#cde4f7"/><path d="M363.65,252.69H343.9a.65.65,0,0,1-.65-.65h0a.65.65,0,0,1,.65-.65h19.75a.65.65,0,0,1,.65.65h0A.65.65,0,0,1,363.65,252.69Z" style="fill:#cde4f7"/><path d="M363.65,255.68H343.9a.65.65,0,0,1-.65-.66h0a.65.65,0,0,1,.65-.65h19.75a.65.65,0,0,1,.65.65h0A.65.65,0,0,1,363.65,255.68Z" style="fill:#cde4f7"/><path d="M363.65,258.66H343.9a.65.65,0,0,1-.65-.65h0a.65.65,0,0,1,.65-.65h19.75a.65.65,0,0,1,.65.65h0A.65.65,0,0,1,363.65,258.66Z" style="fill:#cde4f7"/><path d="M363.65,168.74H343.9a.65.65,0,0,1-.65-.65h0a.65.65,0,0,1,.65-.65h19.75a.65.65,0,0,1,.65.65h0A.65.65,0,0,1,363.65,168.74Z" style="fill:#cde4f7"/><path d="M363.65,171.73H343.9a.65.65,0,0,1-.65-.65h0a.66.66,0,0,1,.65-.66h19.75a.66.66,0,0,1,.65.66h0A.65.65,0,0,1,363.65,171.73Z" style="fill:#cde4f7"/><path d="M363.65,174.71H343.9a.65.65,0,0,1-.65-.65h0a.65.65,0,0,1,.65-.65h19.75a.65.65,0,0,1,.65.65h0A.65.65,0,0,1,363.65,174.71Z" style="fill:#cde4f7"/><path d="M363.65,177.7H343.9a.66.66,0,0,1-.65-.66h0a.65.65,0,0,1,.65-.65h19.75a.65.65,0,0,1,.65.65h0A.66.66,0,0,1,363.65,177.7Z" style="fill:#cde4f7"/><path d="M363.65,180.68H343.9a.65.65,0,0,1-.65-.65h0a.66.66,0,0,1,.65-.66h19.75a.66.66,0,0,1,.65.66h0A.65.65,0,0,1,363.65,180.68Z" style="fill:#cde4f7"/><rect x="343.25" y="182.36" width="21.05" height="1.3" rx="0.5" style="fill:#cde4f7"/><path d="M363.65,186.65H343.9a.66.66,0,0,1-.65-.66h0a.65.65,0,0,1,.65-.65h19.75a.65.65,0,0,1,.65.65h0A.66.66,0,0,1,363.65,186.65Z" style="fill:#cde4f7"/><rect x="343.25" y="188.33" width="21.05" height="1.3" rx="0.5" style="fill:#cde4f7"/><path d="M363.65,192.61H343.9a.65.65,0,0,1-.65-.65h0a.65.65,0,0,1,.65-.65h19.75a.65.65,0,0,1,.65.65h0A.65.65,0,0,1,363.65,192.61Z" style="fill:#cde4f7"/><path d="M337,199.37H307.64a.65.65,0,0,1-.65-.65h0a.65.65,0,0,1,.65-.65H337a.65.65,0,0,1,.65.65h0A.65.65,0,0,1,337,199.37Z" style="fill:#cde4f7"/><path d="M337,202.36H307.64a.66.66,0,0,1-.65-.66h0a.65.65,0,0,1,.65-.65H337a.65.65,0,0,1,.65.65h0A.66.66,0,0,1,337,202.36Z" style="fill:#cde4f7"/><path d="M337,205.34H307.64a.65.65,0,0,1-.65-.65h0a.66.66,0,0,1,.65-.66H337a.66.66,0,0,1,.65.66h0A.65.65,0,0,1,337,205.34Z" style="fill:#cde4f7"/><path d="M337,208.32H307.64a.65.65,0,0,1-.65-.65h0a.65.65,0,0,1,.65-.65H337a.65.65,0,0,1,.65.65h0A.65.65,0,0,1,337,208.32Z" style="fill:#cde4f7"/><path d="M337,211.31H307.64a.66.66,0,0,1-.65-.66h0a.65.65,0,0,1,.65-.65H337a.65.65,0,0,1,.65.65h0A.66.66,0,0,1,337,211.31Z" style="fill:#cde4f7"/><path d="M337,214.29H307.64a.65.65,0,0,1-.65-.65h0a.65.65,0,0,1,.65-.65H337a.65.65,0,0,1,.65.65h0A.65.65,0,0,1,337,214.29Z" style="fill:#cde4f7"/><path d="M337,217.27H307.64a.65.65,0,0,1-.65-.65h0a.65.65,0,0,1,.65-.65H337a.65.65,0,0,1,.65.65h0A.65.65,0,0,1,337,217.27Z" style="fill:#cde4f7"/><path d="M337,220.26H307.64a.65.65,0,0,1-.65-.65h0a.66.66,0,0,1,.65-.66H337a.66.66,0,0,1,.65.66h0A.65.65,0,0,1,337,220.26Z" style="fill:#cde4f7"/><path d="M337,223.24H307.64a.65.65,0,0,1-.65-.65h0a.65.65,0,0,1,.65-.65H337a.65.65,0,0,1,.65.65h0A.65.65,0,0,1,337,223.24Z" style="fill:#cde4f7"/><path d="M337,226.23H307.64a.66.66,0,0,1-.65-.66h0a.65.65,0,0,1,.65-.65H337a.65.65,0,0,1,.65.65h0A.66.66,0,0,1,337,226.23Z" style="fill:#cde4f7"/><path d="M337,229.21H307.64a.65.65,0,0,1-.65-.65h0a.66.66,0,0,1,.65-.66H337a.66.66,0,0,1,.65.66h0A.65.65,0,0,1,337,229.21Z" style="fill:#cde4f7"/><path d="M337,232.19H307.64a.65.65,0,0,1-.65-.65h0a.65.65,0,0,1,.65-.65H337a.65.65,0,0,1,.65.65h0A.65.65,0,0,1,337,232.19Z" style="fill:#cde4f7"/><path d="M337,235.18H307.64a.66.66,0,0,1-.65-.66h0a.65.65,0,0,1,.65-.65H337a.65.65,0,0,1,.65.65h0A.66.66,0,0,1,337,235.18Z" style="fill:#cde4f7"/><path d="M337,238.16H307.64a.65.65,0,0,1-.65-.65h0a.65.65,0,0,1,.65-.65H337a.65.65,0,0,1,.65.65h0A.65.65,0,0,1,337,238.16Z" style="fill:#cde4f7"/><path d="M337,241.14H307.64a.65.65,0,0,1-.65-.65h0a.65.65,0,0,1,.65-.65H337a.65.65,0,0,1,.65.65h0A.65.65,0,0,1,337,241.14Z" style="fill:#cde4f7"/><path d="M337,244.13H307.64a.65.65,0,0,1-.65-.65h0a.65.65,0,0,1,.65-.66H337a.65.65,0,0,1,.65.66h0A.65.65,0,0,1,337,244.13Z" style="fill:#cde4f7"/><path d="M337,246.91H307.64a.65.65,0,0,1-.65-.65h0a.65.65,0,0,1,.65-.65H337a.65.65,0,0,1,.65.65h0A.65.65,0,0,1,337,246.91Z" style="fill:#cde4f7"/><path d="M337,249.9H307.64a.65.65,0,0,1-.65-.65h0a.66.66,0,0,1,.65-.66H337a.66.66,0,0,1,.65.66h0A.65.65,0,0,1,337,249.9Z" style="fill:#cde4f7"/><path d="M337,252.88H307.64a.65.65,0,0,1-.65-.65h0a.65.65,0,0,1,.65-.65H337a.65.65,0,0,1,.65.65h0A.65.65,0,0,1,337,252.88Z" style="fill:#cde4f7"/><path d="M337,255.87H307.64a.66.66,0,0,1-.65-.66h0a.65.65,0,0,1,.65-.65H337a.65.65,0,0,1,.65.65h0A.66.66,0,0,1,337,255.87Z" style="fill:#cde4f7"/><path d="M337,258.85H307.64a.65.65,0,0,1-.65-.65h0a.66.66,0,0,1,.65-.66H337a.66.66,0,0,1,.65.66h0A.65.65,0,0,1,337,258.85Z" style="fill:#cde4f7"/><rect x="343.25" y="197.9" width="21.05" height="19.53" rx="2.8" style="fill:#cde4f7"/><rect x="306.99" y="146.55" width="30.62" height="46.06" rx="3.78" style="fill:#cde4f7"/><rect x="309.87" y="149.42" width="24.86" height="13.35" rx="2.28" style="fill:#f3f7fc"/><rect x="309.87" y="164.4" width="24.86" height="13.35" rx="2.28" style="fill:#f3f7fc"/><rect x="309.87" y="179.37" width="11.7" height="11.08" rx="1.98" style="fill:#f3f7fc"/><rect x="322.75" y="179.37" width="11.99" height="11.08" rx="2.01" style="fill:#f3f7fc"/><rect x="222.56" y="142.32" width="68.03" height="120.15" rx="12.32" style="fill:#f3f7fc"/><rect x="227.95" y="147.86" width="26.81" height="26.81" rx="5.68" style="fill:#cde4f7"/><rect x="265.71" y="147.86" width="20.21" height="1.63" rx="0.62" style="fill:#cde4f7"/><rect x="265.71" y="150.7" width="20.21" height="1.63" rx="0.62" style="fill:#cde4f7"/><rect x="265.71" y="153.54" width="20.21" height="1.63" rx="0.62" style="fill:#cde4f7"/><rect x="265.71" y="156.38" width="20.21" height="1.63" rx="0.62" style="fill:#cde4f7"/><rect x="265.71" y="159.22" width="20.21" height="1.63" rx="0.62" style="fill:#cde4f7"/><rect x="265.71" y="162.06" width="20.21" height="1.63" rx="0.62" style="fill:#cde4f7"/><rect x="265.71" y="164.9" width="20.21" height="1.63" rx="0.62" style="fill:#cde4f7"/><rect x="265.71" y="167.75" width="20.21" height="1.63" rx="0.62" style="fill:#cde4f7"/><rect x="265.71" y="170.59" width="20.21" height="1.63" rx="0.62" style="fill:#cde4f7"/><rect x="265.71" y="173.43" width="20.21" height="1.63" rx="0.62" style="fill:#cde4f7"/><circle cx="259.88" cy="150.48" r="1.42" style="fill:#cde4f7"/><circle cx="259.88" cy="161.65" r="1.42" style="fill:#cde4f7"/><path d="M261.3,172.82a1.42,1.42,0,1,1-1.42-1.42A1.42,1.42,0,0,1,261.3,172.82Z" style="fill:#cde4f7"/><rect x="227.95" y="179.04" width="57.96" height="3.32" style="fill:#cde4f7"/><rect x="227.95" y="184.79" width="57.96" height="3.32" style="fill:#cde4f7"/><rect x="227.95" y="190.54" width="30.51" height="3.32" style="fill:#cde4f7"/><rect x="227.95" y="198.14" width="57.96" height="1.97" rx="0.75" style="fill:#cde4f7"/><rect x="227.95" y="202.17" width="57.96" height="1.97" rx="0.75" style="fill:#cde4f7"/><rect x="227.95" y="206.2" width="57.96" height="1.97" rx="0.75" style="fill:#cde4f7"/><rect x="227.95" y="210.23" width="57.96" height="1.97" rx="0.75" style="fill:#cde4f7"/><rect x="227.95" y="214.26" width="57.96" height="1.97" rx="0.75" style="fill:#cde4f7"/><rect x="227.95" y="218.29" width="57.96" height="1.97" rx="0.75" style="fill:#cde4f7"/><rect x="227.95" y="222.32" width="29.33" height="1.97" rx="0.75" style="fill:#cde4f7"/><rect x="227.95" y="230.14" width="17.16" height="18.06" rx="6.53" style="fill:#cde4f7"/><rect x="248.36" y="230.06" width="17.16" height="18.06" rx="6.53" style="fill:#cde4f7"/><rect x="268.76" y="229.98" width="17.16" height="18.06" rx="6.53" style="fill:#cde4f7"/><rect x="227.95" y="251.63" width="57.96" height="1.71" rx="0.65" style="fill:#cde4f7"/><rect x="227.95" y="254.82" width="57.96" height="1.71" rx="0.65" style="fill:#cde4f7"/><rect x="227.95" y="258.01" width="34.67" height="1.71" rx="0.65" style="fill:#cde4f7"/><rect x="107.41" y="158.06" width="49.69" height="34.13" rx="11.39" style="fill:#d63393"/><path d="M120.21,178.1a6,6,0,0,1-.53,2.79c-.66,1.21-1.91,1.81-3.75,1.81a4.37,4.37,0,0,1-2.72-.86,3.66,3.66,0,0,1-1.13-3.07v-1h1.8v1a2.58,2.58,0,0,0,.52,1.74,2,2,0,0,0,1.61.58,2,2,0,0,0,2-1.05,6.89,6.89,0,0,0,.29-2.44v-9.43h1.9Z" style="fill:#fff"/><path d="M134.78,170.19a7.8,7.8,0,0,1,1.41,4.81,8.44,8.44,0,0,1-1.61,5.27,6.38,6.38,0,0,1-5.39,2.47,6.45,6.45,0,0,1-5.14-2.16,8.16,8.16,0,0,1-1.66-5.26,8.37,8.37,0,0,1,1.42-4.92,6.18,6.18,0,0,1,5.42-2.62A6.47,6.47,0,0,1,134.78,170.19Zm-1.69,9a7.74,7.74,0,0,0,1.13-4.19,6,6,0,0,0-1.3-4,4.44,4.44,0,0,0-3.57-1.52,4.65,4.65,0,0,0-3.59,1.51,6.38,6.38,0,0,0-1.39,4.45,6.54,6.54,0,0,0,1.19,4,4.47,4.47,0,0,0,3.86,1.61A4,4,0,0,0,133.09,179.22Z" style="fill:#fff"/><path d="M138.43,168.17h6.12a4.06,4.06,0,0,1,3.56,1.48,3.43,3.43,0,0,1,.62,2,3.17,3.17,0,0,1-.76,2.2,3.65,3.65,0,0,1-1.14.83,4.79,4.79,0,0,1,1.63.94,3.35,3.35,0,0,1,1,2.55,3.93,3.93,0,0,1-.87,2.48,4.89,4.89,0,0,1-4.1,1.66h-6Zm5.4,6a4.3,4.3,0,0,0,1.91-.34,1.92,1.92,0,0,0,1.07-1.9,1.83,1.83,0,0,0-1.14-1.87,5.16,5.16,0,0,0-1.91-.27h-3.45v4.38Zm.65,6.54a3,3,0,0,0,2.54-1,2.59,2.59,0,0,0,.48-1.57,2.09,2.09,0,0,0-1.39-2.1,5.35,5.35,0,0,0-2-.3h-3.84v5Z" style="fill:#fff"/><path d="M150.86,200.62a.94.94,0,0,1-.74-.37l-6.88-9H108.37a2.57,2.57,0,0,1-2.57-2.57V159.1a2.58,2.58,0,0,1,2.57-2.57h45.15a2.58,2.58,0,0,1,2.57,2.57v29.59a2.58,2.58,0,0,1-2.57,2.57H151.8v8.42a.94.94,0,0,1-.63.89A1.18,1.18,0,0,1,150.86,200.62Zm-42.49-43.49a2,2,0,0,0-2,2v29.59a2,2,0,0,0,2,2h35.16l7.07,9.22a.32.32,0,0,0,.37.12.33.33,0,0,0,.23-.32v-9h2.32a2,2,0,0,0,2-2V159.1a2,2,0,0,0-2-2Z" style="fill:#172b54"/><rect x="212.34" y="98.02" width="49.69" height="34.13" rx="11.39" style="fill:#f58220"/><path d="M225.14,118.07a6,6,0,0,1-.53,2.79c-.66,1.21-1.91,1.81-3.75,1.81a4.37,4.37,0,0,1-2.72-.86,3.66,3.66,0,0,1-1.13-3.07v-1h1.81v1a2.58,2.58,0,0,0,.51,1.74,2,2,0,0,0,1.61.58,2,2,0,0,0,2-1,6.89,6.89,0,0,0,.29-2.44v-9.44h1.9Z" style="fill:#fff"/><path d="M239.71,110.16a7.8,7.8,0,0,1,1.41,4.81,8.44,8.44,0,0,1-1.61,5.27,6.37,6.37,0,0,1-5.39,2.47,6.45,6.45,0,0,1-5.14-2.16,8.16,8.16,0,0,1-1.66-5.26,8.37,8.37,0,0,1,1.42-4.92,6.18,6.18,0,0,1,5.42-2.62A6.47,6.47,0,0,1,239.71,110.16Zm-1.69,9a7.74,7.74,0,0,0,1.13-4.19,6,6,0,0,0-1.3-4,4.44,4.44,0,0,0-3.57-1.52,4.65,4.65,0,0,0-3.59,1.51,6.38,6.38,0,0,0-1.39,4.45,6.54,6.54,0,0,0,1.19,4,4.5,4.5,0,0,0,3.86,1.61A4,4,0,0,0,238,119.19Z" style="fill:#fff"/><path d="M243.36,108.13h6.12a4.06,4.06,0,0,1,3.56,1.49,3.43,3.43,0,0,1,.62,2,3.17,3.17,0,0,1-.76,2.2,3.65,3.65,0,0,1-1.14.83,4.79,4.79,0,0,1,1.63.94,3.35,3.35,0,0,1,1,2.55,3.93,3.93,0,0,1-.87,2.48,4.88,4.88,0,0,1-4.1,1.66h-6Zm5.4,6a4.3,4.3,0,0,0,1.91-.34,1.93,1.93,0,0,0,1.07-1.91A1.85,1.85,0,0,0,250.6,110a5.34,5.34,0,0,0-1.91-.27h-3.45v4.39Zm.65,6.54a2.93,2.93,0,0,0,2.54-1,2.54,2.54,0,0,0,.48-1.56A2.09,2.09,0,0,0,251,116a5.35,5.35,0,0,0-2-.3h-3.84v5Z" style="fill:#fff"/><path d="M255.79,140.59a.94.94,0,0,1-.74-.37l-6.88-9H213.3a2.57,2.57,0,0,1-2.57-2.57V99.07a2.58,2.58,0,0,1,2.57-2.57h45.15A2.58,2.58,0,0,1,261,99.07v29.59a2.58,2.58,0,0,1-2.57,2.57h-1.72v8.42a.94.94,0,0,1-.63.89A1.12,1.12,0,0,1,255.79,140.59ZM213.3,97.1a2,2,0,0,0-2,2v29.59a2,2,0,0,0,2,2h35.16l7.07,9.22a.32.32,0,0,0,.37.12.33.33,0,0,0,.23-.32v-9h2.32a2,2,0,0,0,2-2V99.07a2,2,0,0,0-2-2Z" style="fill:#172b54"/><rect x="355.27" y="116.89" width="49.69" height="34.13" rx="11.39" transform="translate(760.24 267.92) rotate(180)" style="fill:#693f98"/><path d="M371.09,136.94a6,6,0,0,1-.53,2.79c-.66,1.21-1.91,1.81-3.75,1.81a4.37,4.37,0,0,1-2.72-.86,3.66,3.66,0,0,1-1.13-3.07v-1h1.8v1a2.53,2.53,0,0,0,.52,1.74,2,2,0,0,0,1.61.58,2,2,0,0,0,2-1.05,6.89,6.89,0,0,0,.29-2.44V127h1.9Z" style="fill:#fff"/><path d="M385.66,129a7.8,7.8,0,0,1,1.41,4.81,8.44,8.44,0,0,1-1.61,5.27,6.38,6.38,0,0,1-5.39,2.47,6.45,6.45,0,0,1-5.14-2.16,8.16,8.16,0,0,1-1.67-5.26,8.38,8.38,0,0,1,1.43-4.92,6.18,6.18,0,0,1,5.42-2.62A6.47,6.47,0,0,1,385.66,129Zm-1.69,9a7.76,7.76,0,0,0,1.13-4.18,6,6,0,0,0-1.3-4,4.47,4.47,0,0,0-3.58-1.52,4.62,4.62,0,0,0-3.58,1.51,6.33,6.33,0,0,0-1.39,4.45,6.54,6.54,0,0,0,1.19,4,4.49,4.49,0,0,0,3.86,1.61A4,4,0,0,0,384,138.05Z" style="fill:#fff"/><path d="M389.3,127h6.13a4.07,4.07,0,0,1,3.56,1.49,3.43,3.43,0,0,1,.62,2,3.17,3.17,0,0,1-.76,2.2,3.78,3.78,0,0,1-1.14.83,4.79,4.79,0,0,1,1.63.94,3.35,3.35,0,0,1,1,2.55,3.92,3.92,0,0,1-.86,2.48,4.89,4.89,0,0,1-4.1,1.66h-6Zm5.41,6a4.3,4.3,0,0,0,1.91-.34,1.94,1.94,0,0,0,1.07-1.91,1.85,1.85,0,0,0-1.14-1.87,5.16,5.16,0,0,0-1.91-.27h-3.46V133Zm.65,6.54a2.94,2.94,0,0,0,2.54-1,2.54,2.54,0,0,0,.48-1.56,2.08,2.08,0,0,0-1.4-2.1,5.25,5.25,0,0,0-2-.3h-3.85v5Z" style="fill:#fff"/><path d="M361.52,159.46a.81.81,0,0,1-.31-.06.91.91,0,0,1-.64-.88V150.1h-1.71a2.57,2.57,0,0,1-2.57-2.57V117.94a2.58,2.58,0,0,1,2.57-2.57H404a2.58,2.58,0,0,1,2.57,2.57v29.59A2.57,2.57,0,0,1,404,150.1H369.14l-6.89,9A.91.91,0,0,1,361.52,159.46ZM358.86,116a2,2,0,0,0-2,2v29.59a2,2,0,0,0,2,2h2.31v9a.34.34,0,0,0,.23.32.33.33,0,0,0,.38-.12l7.06-9.22H404a2,2,0,0,0,2-2V117.94a2,2,0,0,0-2-2Z" style="fill:#172b54"/><path d="M278.15,292.89a54.52,54.52,0,1,0-80.95,15.53,2.81,2.81,0,0,0-2.29,1.41l-39.33,68a2.83,2.83,0,0,0,1,3.88l10.74,6.21a2.83,2.83,0,0,0,3.87-1l39.33-68a2.82,2.82,0,0,0,.08-2.7,54.53,54.53,0,0,0,67.52-23.3Zm-70.81,13.5a47.14,47.14,0,1,1,35.77,4.75A46.85,46.85,0,0,1,207.34,306.39Z" style="fill:#172b54"/><circle cx="230.1" cy="267.05" r="46.27" transform="translate(-108.49 365.12) rotate(-65.4)" style="fill:#fff"/><circle cx="230.1" cy="267.05" r="46.27" transform="translate(-108.49 365.12) rotate(-65.4)" style="fill:#cde4f7;opacity:0.61"/><g style="clip-path:url(#ad1cf0a6-3f5f-4908-81df-aa0eb8628fbd)"><polygon points="252.39 221.16 174.85 253.65 176.09 276.04 272.25 238.34 252.39 221.16" style="fill:#578dca;opacity:0.26"/><polygon points="285.21 241.32 181.24 282.95 190.59 301.79 292.42 261.87 285.21 241.32" style="fill:#578dca;opacity:0.18"/><polygon points="293.54 267.96 189.57 309.59 198.17 319.48 297.9 280.39 293.54 267.96" style="fill:#578dca;opacity:0.1"/></g><path d="M282.57,297.67a54.53,54.53,0,1,0-80.95,15.54,2.84,2.84,0,0,0-2.3,1.41l-39.33,68a2.84,2.84,0,0,0,1,3.88l10.73,6.21a2.84,2.84,0,0,0,3.88-1l39.33-68a2.83,2.83,0,0,0,.08-2.69,54.56,54.56,0,0,0,67.52-23.31Zm-70.81,13.51a47.15,47.15,0,1,1,35.77,4.74A46.86,46.86,0,0,1,211.76,311.18Z" style="fill:#578dca;opacity:0.14"/><rect x="291.66" y="186.2" width="193.54" height="39.08" rx="14.88" style="fill:#f3f7fc"/><path d="M462.93,225H308.47a20.14,20.14,0,0,1,0-40.28H462.93a20.14,20.14,0,0,1,0,40.28ZM308.47,185.9a18.95,18.95,0,0,0,0,37.89H462.93a18.95,18.95,0,1,0,0-37.89Z" style="fill:#172b54"/><rect x="308.8" y="202.04" width="4" height="4" rx="1.52" style="fill:#172b54"/><rect x="315.8" y="202.04" width="4" height="4" rx="1.52" style="fill:#172b54"/><rect x="322.81" y="202.04" width="4" height="4" rx="1.52" style="fill:#172b54"/><rect x="329.82" y="202.04" width="4" height="4" rx="1.52" style="fill:#172b54"/><rect x="336.83" y="202.04" width="4" height="4" rx="1.52" style="fill:#172b54"/><rect x="343.83" y="202.04" width="4" height="4" rx="1.52" style="fill:#172b54"/><rect x="350.84" y="202.04" width="4" height="4" rx="1.52" style="fill:#172b54"/><rect x="357.85" y="202.04" width="4" height="4" rx="1.52" style="fill:#172b54"/><rect x="364.86" y="202.04" width="4" height="4" rx="1.52" style="fill:#172b54"/><rect x="371.87" y="202.04" width="4" height="4" rx="1.52" style="fill:#172b54"/><rect x="378.87" y="202.04" width="4" height="4" rx="1.52" style="fill:#172b54"/><rect x="385.88" y="202.04" width="4" height="4" rx="1.52" style="fill:#172b54"/><rect x="392.89" y="202.04" width="4" height="4" rx="1.52" style="fill:#172b54"/><rect x="399.9" y="202.04" width="4" height="4" rx="1.52" style="fill:#172b54"/><rect x="406.9" y="202.04" width="4" height="4" rx="1.52" style="fill:#172b54"/><rect x="413.91" y="202.04" width="4" height="4" rx="1.52" style="fill:#172b54"/><rect x="420.92" y="202.04" width="4" height="4" rx="1.52" style="fill:#172b54"/><rect x="427.93" y="202.04" width="4" height="4" rx="1.52" style="fill:#172b54"/><rect x="434.94" y="202.04" width="4" height="4" rx="1.52" style="fill:#172b54"/><rect x="441.94" y="202.04" width="4" height="4" rx="1.52" style="fill:#172b54"/><rect x="448.95" y="202.04" width="4" height="4" rx="1.52" style="fill:#172b54"/><rect x="455.96" y="202.04" width="4" height="4" rx="1.52" style="fill:#172b54"/><rect x="462.97" y="202.04" width="4" height="4" rx="1.52" style="fill:#172b54"/><path d="M102.37,394H86.91a1,1,0,0,0-1,1.33L92.69,418a1,1,0,0,0,1,.74h13.08a1,1,0,0,0,1-.74l6.76-22.59a1,1,0,0,0-1-1.33Z" style="fill:#172b54"/><path d="M111.11,383a7.14,7.14,0,0,1,1.9-3,3.11,3.11,0,0,1,3.35-.56c.78.41,1.59,1.28,2.36.85a1.67,1.67,0,0,0,.62-1.45c.11-1.79.09-3.8,1.36-5.06s3.29-1.22,5-.78a3.41,3.41,0,0,0,2.43.09,2.5,2.5,0,0,0,.91-1c.82-1.33,1.34-3.05,2.77-3.69,2.31-1,5,1.57,7.37.71.93-.34,1.72-1.2,2.71-1.1a2.05,2.05,0,0,1,1.26.68,3.4,3.4,0,0,1,0,4.51c-1.52,1.6-4.3,1.37-5.83,3s-1.35,4.28-3.14,5.4c-1.52.94-3.56.17-5.24.76-1.34.48-2.22,1.74-3.1,2.87s-2,2.29-3.41,2.38c-.75.05-1.49-.21-2.24-.15-2.15.2-3.35,2.92-5.49,3.24-1.43.22-2.66-.74-3.65-1.65a2.83,2.83,0,0,1-.91-1.3,4.12,4.12,0,0,1,.12-1.94A20.79,20.79,0,0,1,111.11,383Z" style="fill:#6cb597"/><path d="M95.68,378.57a3.2,3.2,0,0,1-1.19-3.84,8.89,8.89,0,0,1,1.42-1.59,1.94,1.94,0,0,0,.56-1.94,2.45,2.45,0,0,0-.68-.79,10.49,10.49,0,0,1-2.54-2.82,3.68,3.68,0,0,1-.11-3.63,7.94,7.94,0,0,1,2.15-1.88,2.94,2.94,0,0,0,1.43-2.36c-.08-1.19-1.36-2.27-.89-3.37s2.48-1.07,2.8-2.27c.16-.59-.2-1.19-.34-1.78a2.64,2.64,0,0,1,5.1-1.33c.25.92,0,1.94.36,2.82.47,1.13,1.82,1.68,2.41,2.76,1.09,2-.89,4.34-.72,6.6s2.73,4.43,2.07,6.73c-.26.9-1,1.62-1.23,2.52a6.27,6.27,0,0,0,.42,3.29,2.78,2.78,0,0,1-2.5,4.19,14.69,14.69,0,0,1-6.72-.44A6,6,0,0,1,95.68,378.57Z" style="fill:#6cb597"/><path d="M100.16,399.71a.28.28,0,0,1-.15,0,.29.29,0,0,1-.09-.4,37.45,37.45,0,0,1,7.69-8.87,74.79,74.79,0,0,1,10.8-7.15l25-14.51a.28.28,0,0,1,.4.1.29.29,0,0,1-.11.4l-25,14.51A74.2,74.2,0,0,0,108,390.84a36.78,36.78,0,0,0-7.57,8.74A.28.28,0,0,1,100.16,399.71Z" style="fill:#172b54"/><path d="M101,398.48a.28.28,0,0,1-.29-.28c-.43-14.52-.11-34.45.23-48.61a.29.29,0,0,1,.3-.28.28.28,0,0,1,.28.29c-.34,14.16-.66,34.08-.23,48.58a.3.3,0,0,1-.29.3Z" style="fill:#172b54"/><path d="M86.57,390.65a4.07,4.07,0,0,1-3.7-3c-.24-1.33.3-3-.8-3.82a2.56,2.56,0,0,0-1.36-.35c-1.71-.09-3.59.14-5-.85-2-1.45-1.84-4.44-2-6.93A2.66,2.66,0,0,0,73.1,374a4,4,0,0,0-1.91-.68,5.77,5.77,0,0,1-4.36-5.39,3.22,3.22,0,0,1,.67-2.14,3.08,3.08,0,0,1,1.32-.79,4.42,4.42,0,0,1,4.51,1.3,28.48,28.48,0,0,0,1.83,2.49c2.16,2,5.7.35,8.48,1.26a4.82,4.82,0,0,1,3.15,3.46c.31,1.39,0,2.92.69,4.17,1.16,2.14,4.2,2,6.45,3a2.75,2.75,0,0,1,1.37,1,2.94,2.94,0,0,1,.36,1.3,7.75,7.75,0,0,1-1.51,5.15,5.28,5.28,0,0,1-1.89,1.75,11.89,11.89,0,0,1-1.88.31A10.73,10.73,0,0,1,86.57,390.65Z" style="fill:#6cb597"/><path d="M99.44,400.13a.32.32,0,0,1-.26-.15c-4-7.47-12.64-17.34-16.79-22.08a32.35,32.35,0,0,0-4-4.08,34.47,34.47,0,0,0-4-2.58c-2.53-1.46-5.14-3-6.69-5.48a.29.29,0,0,1,.1-.4.29.29,0,0,1,.39.09c1.48,2.4,3.91,3.8,6.48,5.29a32.47,32.47,0,0,1,4.1,2.63,31.58,31.58,0,0,1,4.11,4.15c4.17,4.76,12.85,14.66,16.87,22.18a.29.29,0,0,1-.11.4Z" style="fill:#172b54"/><path d="M451.05,257.87s-13.14,24.64-15.25,26.62-31.89,10.18-31.89,10.18l1.18,4.32s36.88.85,38.76,0,12.71-10.47,12.71-10.47Z" style="fill:#578dca"/><polygon points="432.9 405.63 433.8 411.04 440.65 411.04 440.26 404.85 432.9 405.63" style="fill:#fac0b2"/><polygon points="408.28 404.54 408.65 411.91 414.76 411.44 415.67 404.6 408.28 404.54" style="fill:#fac0b2"/><path d="M461.22,315.45s-43.48,14.56-50,21-3.9,68.31-3.9,68.31h9.3l13.09-50.87s52.71-1.18,58.41-11.18c7.52-13.21,1.78-30.4,1.78-30.4Z" style="fill:#0e213f"/><path d="M463.89,318.88s-36.16,21.06-40.76,28.06,9.11,58.76,9.11,58.76l8.47-.9,2.18-45.71s46.88-10.81,50.12-20.81c4.27-13.19-4-27.49-4-27.49Z" style="fill:#172b54"/><path d="M415.79,410s-5.54,1.54-8.1,0l-11.1,5.79a4.55,4.55,0,0,0-2.44,4V420H416a1.07,1.07,0,0,0,1.07-1.23Z" style="fill:#0e213f"/><path d="M441,410s-5.53,1.54-8.1,0l-11.09,5.79a4.55,4.55,0,0,0-2.44,4V420h21.82a1.07,1.07,0,0,0,1.07-1.23Z" style="fill:#172b54"/><path d="M461.71,251.29l-4.17-17h0a35.1,35.1,0,0,0-2.23-11.54,5.39,5.39,0,0,0-7.33-3.08l-8.1,3.7a5.08,5.08,0,0,0-2.81,5.8,77.32,77.32,0,0,1,1.76,8.86,13,13,0,0,0,2.22,6.44,8.56,8.56,0,0,0,10.32,2.69l1,11Z" style="fill:#fac0b2"/><path d="M441.7,237a1,1,0,0,1-.69-.27,1,1,0,0,1-.33-.85l.65-6.61a.23.23,0,0,1,.25-.21.23.23,0,0,1,.21.25l-.64,6.61a.55.55,0,0,0,.17.47.57.57,0,0,0,.48.14l2-.35a.23.23,0,0,1,.27.19.24.24,0,0,1-.19.27l-2,.35Z" style="fill:#172b54"/><path d="M446.61,236.94a14.69,14.69,0,0,1-5.6,3S445.58,242.76,446.61,236.94Z" style="fill:#fff"/><path d="M442.76,239.6a.22.22,0,0,1-.21-.14.23.23,0,0,1,.12-.31,11.44,11.44,0,0,0,3.95-2.7.25.25,0,0,1,.33,0,.23.23,0,0,1,0,.33,11.9,11.9,0,0,1-4.12,2.83Z" style="fill:#172b54"/><path d="M440,230.49a.83.83,0,1,1-.8-1A.92.92,0,0,1,440,230.49Z" style="fill:#172b54"/><ellipse cx="444.62" cy="228.84" rx="0.81" ry="1" style="fill:#172b54"/><path d="M436.93,226.85s8.95.75,12.86-2.25c0,0,.09,6,1.5,6.89s5.76,0,7.11,6a32.62,32.62,0,0,0,1.3-14.22c-1.08-7.67-5.91-11.33-10.57-10.91S427.26,219.16,436.93,226.85Z" style="fill:#172b54"/><ellipse cx="453.86" cy="229.48" rx="4.16" ry="2.44" transform="translate(125.07 617.49) rotate(-76.55)" style="fill:#fac0b2"/><path d="M452.77,231.2a.23.23,0,0,1-.23-.22,7.33,7.33,0,0,1,2.07-4.89.23.23,0,0,1,.33.33A7,7,0,0,0,453,231a.24.24,0,0,1-.22.25Z" style="fill:#172b54"/><path d="M461.72,248.76s25.91,10.94,30.65,67.39c0,0-11.17,6.78-38.51,2.84a60.58,60.58,0,0,0,.48-8.6c-.26-2.51-8.38-40.79-3.29-52.52Z" style="fill:#578dca"/><path d="M451.37,247.38a.23.23,0,0,1-.21-.14.23.23,0,0,1,.12-.31s2.62-1.16,4.1-5.19a.23.23,0,0,1,.44.16c-1.56,4.24-4.24,5.41-4.36,5.46Z" style="fill:#172b54"/><path d="M461.05,261.93s-8.14,20.83-10.55,24-39.21,9.15-39.21,9.15l2.18,6s37.73,2.17,42.34,0,14.93-9.61,17.83-20.12S470.21,257.21,461.05,261.93Z" style="fill:#578dca"/><path d="M442.69,302.28c-12.18,0-28.22-.91-29.24-1a.24.24,0,0,1,0-.47c.38,0,37.73,2.15,42.23,0,3.9-1.85,14.69-9,17.71-20a.23.23,0,1,1,.44.12c-3.06,11.11-14,18.4-18,20.27C454.33,302,449,302.28,442.69,302.28Z" style="fill:#172b54"/><path d="M411.29,295.33a.23.23,0,0,1-.23-.2.24.24,0,0,1,.19-.27c12.7-2.06,37.2-6.61,39.06-9.06,2.37-3.12,10.44-23.75,10.52-24a.24.24,0,0,1,.31-.13.23.23,0,0,1,.13.3c-.33.85-8.18,20.9-10.59,24.07s-37.84,9-39.35,9.24Z" style="fill:#172b54"/><path d="M451.37,284.74a.24.24,0,0,1-.23-.23c0-.16-.77-16.39,0-22.61a.23.23,0,0,1,.26-.2.22.22,0,0,1,.2.26c-.76,6.18,0,22.37,0,22.53a.25.25,0,0,1-.23.25Z" style="fill:#172b54"/><path d="M412,296.1s-4.44-1-6.37-.27c-.7.27-8.54,6.6-8.54,6.6h11.58l4.48-2.31Z" style="fill:#fac0b2"/><path d="M404.15,295.55a27.68,27.68,0,0,0-4.9,0c-1.2.28-7.35,3.09-7.35,3.44s.62.83,1.44.64,7.74-2.08,7.74-2.08-3.94,1.93-4.52,2.75a12.86,12.86,0,0,0-1.11,2.13h7.26l2.38-3.44Z" style="fill:#fac0b2"/><path d="M397.37,302.63h-.06a.19.19,0,0,1-.13-.25,3.68,3.68,0,0,1,.93-1.43c.68-.68,6-4.33,6.22-4.49a.2.2,0,0,1,.23.33c-.06,0-5.52,3.79-6.17,4.44a3.38,3.38,0,0,0-.83,1.27A.21.21,0,0,1,397.37,302.63Z" style="fill:#172b54"/><polygon points="471.03 356.73 455.81 419.95 457.07 419.95 476.46 356.39 471.03 356.73" style="fill:#172b54"/><polygon points="492.42 356.73 507.64 419.95 506.38 419.95 486.98 356.39 492.42 356.73" style="fill:#172b54"/><path d="M457.72,354.16s22.35-11.25,33-28.09c5.59-8.83,6.24-31.92,10.85-32.27s8.87,7.09,10.29,15.25,1.42,39.5-8.87,45.11-45.85,8.09-48.28,7S451.46,357.77,457.72,354.16Z" style="fill:#8abce6"/><path d="M467.52,308.74H309.36a1.81,1.81,0,0,1-1.81-1.8h0a1.81,1.81,0,0,1,1.81-1.81H467.52a1.8,1.8,0,0,1,1.8,1.81h0A1.8,1.8,0,0,1,467.52,308.74Z" style="fill:#8abce6"/><polygon points="318.62 419.95 315.82 419.95 337.33 308.74 340.13 308.74 318.62 419.95" style="fill:#8abce6"/><polygon points="458.26 419.95 461.05 419.95 439.54 308.74 436.75 308.74 458.26 419.95" style="fill:#8abce6"/><path d="M366.88,302.43,348.6,259.78a1.2,1.2,0,0,0-1.1-.73h0a1.2,1.2,0,0,0-1.1,1.67l19,44.41h45.18a1.34,1.34,0,0,0,1.35-1.35h0a1.34,1.34,0,0,0-1.35-1.35Z" style="fill:#172b54"/><path d="M597.11,420.28H2.89a.8.8,0,1,1,0-1.6H597.11a.8.8,0,1,1,0,1.6Z" style="fill:#172b54"/></svg>